<svg xmlns="http://www.w3.org/2000/svg"><symbol id="map" viewBox="0 0 512 512"><path fill="#094639" d="M256 0C153.755 0 70.573 83.182 70.573 185.426c0 126.888 165.939 313.167 173.004 321.035 6.636 7.391 18.222 7.378 24.846 0 7.065-7.868 173.004-194.147 173.004-321.035C441.425 83.182 358.244 0 256 0zm0 278.719c-51.442 0-93.292-41.851-93.292-93.293S204.559 92.134 256 92.134s93.291 41.851 93.291 93.293-41.85 93.292-93.291 93.292z" data-original="#000000"/></symbol><symbol id="vote" viewBox="0 0 16 16"><path fill="#374957" fill-rule="evenodd" d="M12.437 15.264a.779.779 0 1-.363-.09 NaNL5.527 NaN 1.71a.78.78 0 1-1.13 NaN NaN.78.78 0 1.433-1.33 NaN NaN.78.78 0 11.399 0 NaN NaN.78.78 0 1.432 1.33 NaN NaN.78.78 0 1-.768 NaN NaNz" clip-rule="evenodd"/></symbol><symbol id="vote-btn" viewBox="0 0 500 500"><g fill="#FFF"><path d="M475 126.764c0-50.823-41.348-92.17-92.17-92.17H117.173C66.35 34.594 25 75.943 25 126.767s41.35 92.17 92.173 92.17h72.971c.316 0 .617-.062.926-.094.119.456.137.916.278 1.371l30.211 96.015a28.947 28.947 0 0 0-11.963.169c-25.501 5.65-27.342 23.898-24.393 38.208 10.518 51.12 27.588 106.055 97.417 110.765.344.023.725.035 1.137.035 5.626 0 17.049-2.049 21.287-3.182 21.297-3.06 45.379-9.749 73.615-20.464 38.678-14.677 62.887-54.168 57.565-93.9-.461-3.442-1.14-6.613-2.014-9.43l-25.592-82.353c-5.157-16.589-21.842-26.361-37.955-22.259-5.268 1.341-9.863 4.056-13.679 7.663-6.278-13.272-22.027-20.201-37.155-15.498-6.548 2.035-12.074 6.049-16.079 11.334a30.595 30.595 0 0 0-5.088-3.104c-7.245-3.486-15.573-4.052-23.44-1.615-4.612 1.433-8.678 3.901-12.129 7.028l-6.515-20.692H382.83c50.822.003 92.17-41.347 92.17-92.17zM279.013 350.287c1.498 4.751 6.575 7.394 11.312 5.894a9.018 9.018 0 0 0 5.896-11.315l-1.988-6.314c-.024-.086-.026-.173-.053-.261l-22.788-73.323c-.893-2.875-.505-5.999 1.093-8.792 1.718-3.004 4.589-5.257 8.09-6.343 3.494-1.086 7.145-.861 10.257.64 2.902 1.398 4.99 3.75 5.883 6.628l11.86 38.169 12.977 41.762a9.031 9.031 0 0 0 8.614 6.346 9.025 9.025 0 0 0 8.619-11.702l-2.052-6.603-.002-.005-10.924-35.154-9.808-31.565c-.896-2.875-.508-5.997 1.092-8.79 1.718-3.004 4.59-5.256 8.088-6.343 6.971-2.173 14.225 1.084 16.142 7.265l7.133 22.955c.002.006.002.01.002.015.002.005.005.009.006.014l15.643 50.342c1.48 4.757 6.522 7.412 11.294 5.938 4.757-1.479 7.415-6.534 5.938-11.294l-15.652-50.372a13.139 13.139 0 0 1 1.096-10.394c1.791-3.204 4.751-5.471 8.328-6.381 6.699-1.715 14.011 2.837 16.275 10.128l25.596 82.359c.576 1.849 1.034 4.026 1.36 6.466 4.22 31.509-15.161 62.899-46.084 74.636-27.216 10.327-50.215 16.726-70.31 19.557-.244.035-.465.12-.701.173-.239.053-.479.071-.717.145-2.69.837-14.14 2.737-16.689 2.602-51.845-3.498-68.945-37.997-80.965-96.402-2.46-11.946 1.289-14.885 10.642-16.959 7.682-1.721 14.459 4.787 16.941 11.773.255.719.615 1.364 1.02 1.972l7.188 22.844a9.02 9.02 0 0 0 8.602 6.317c.898 0 1.809-.135 2.71-.42 4.751-1.495 7.394-6.56 5.897-11.312L208.568 214.83c-2.17-6.983 1.745-14.43 8.727-16.597 6.977-2.191 14.425 1.748 16.607 8.761zm-27.954-149.392c-.08 0-.154.021-.233.024-5.405-16.031-22.651-24.965-38.888-19.916-9.982 3.104-17.238 10.804-20.324 20.041-.482-.08-.967-.149-1.471-.149h-72.971c-40.877 0-74.131-33.254-74.131-74.128 0-40.877 33.254-74.131 74.131-74.131H382.83c40.873 0 74.128 33.253 74.128 74.131 0 40.874-33.254 74.128-74.128 74.128z" data-original="#000000"/><path d="M180.001 86.653c-3.897 0-5.855 2.752-6.425 4.467l-10.131 35.077-10.161-35.165c-.543-1.627-2.502-4.379-6.398-4.379-4.115 0-6.986 2.873-6.986 6.986 0 1.249.491 2.781.563 2.993l16.09 55.366c.778 2.598 3.266 5.394 6.892 5.394 3.621 0 6.111-2.796 6.889-5.391L186.4 96.717c.096-.297.587-1.829.587-3.078-.001-4.114-2.872-6.986-6.986-6.986zm41.159-.945c-15.843 0-23.542 11.879-23.542 36.313 0 24.439 7.699 36.317 23.542 36.317 15.842 0 23.546-11.878 23.546-36.317-.001-24.434-7.704-36.313-23.546-36.313zm0 58.658c-3.345 0-9.57 0-9.57-22.345 0-22.341 6.225-22.341 9.57-22.341s9.573 0 9.573 22.341c0 22.345-6.228 22.345-9.573 22.345zm68.6-57.713h-28.385c-3.591 0-6.986 3.395-6.986 6.986 0 3.592 3.395 6.986 6.986 6.986h7.207v49.781c0 3.592 3.394 6.986 6.986 6.986s6.986-3.394 6.986-6.986v-49.781h7.206c3.592 0 6.986-3.394 6.986-6.986.001-3.591-3.394-6.986-6.986-6.986zm48.258 13.972c3.591 0 6.986-3.394 6.986-6.986 0-3.591-3.395-6.986-6.986-6.986H317.2c-3.588 0-6.983 3.395-6.983 6.986v56.767c0 3.592 3.395 6.986 6.983 6.986h20.818c3.591 0 6.986-3.394 6.986-6.986 0-3.591-3.395-6.986-6.986-6.986h-13.831v-18.195h12.882c3.592 0 6.986-3.394 6.986-6.986 0-3.591-3.394-6.986-6.986-6.986h-12.882v-10.628z" data-original="#000000"/></g></symbol></svg>